<svg width="233" height="28" viewBox="0 0 233 28" fill="none" xmlns="http://www.w3.org/2000/svg">
<path d="M8.25 27H0.170455V0.818181H8.60795C11.1477 0.818181 13.321 1.34233 15.1278 2.39062C16.9347 3.4304 18.3196 4.92614 19.2827 6.87784C20.2457 8.82102 20.7273 11.1477 20.7273 13.858C20.7273 16.5852 20.2415 18.9332 19.2699 20.902C18.2983 22.8622 16.8835 24.3707 15.0256 25.4276C13.1676 26.4759 10.9091 27 8.25 27ZM3.34091 24.1875H8.04545C10.2102 24.1875 12.0043 23.7699 13.4276 22.9347C14.8509 22.0994 15.9119 20.9105 16.6108 19.3679C17.3097 17.8253 17.6591 15.9886 17.6591 13.858C17.6591 11.7443 17.3139 9.92472 16.6236 8.39915C15.9332 6.86506 14.902 5.68892 13.5298 4.87074C12.1577 4.04403 10.4489 3.63068 8.40341 3.63068H3.34091V24.1875ZM25.6364 27V7.36364H28.5511V10.3295H28.7557C29.1136 9.35795 29.7614 8.5696 30.6989 7.96449C31.6364 7.35937 32.6932 7.05682 33.8693 7.05682C34.0909 7.05682 34.3679 7.06108 34.7003 7.0696C35.0327 7.07812 35.2841 7.09091 35.4545 7.10795V10.1761C35.3523 10.1506 35.1179 10.1122 34.7514 10.0611C34.3935 10.0014 34.0142 9.97159 33.6136 9.97159C32.6591 9.97159 31.8068 10.1719 31.0568 10.5724C30.3153 10.9645 29.7273 11.5099 29.2926 12.2088C28.8665 12.8991 28.6534 13.6875 28.6534 14.5739V27H25.6364ZM44.8093 27.4602C43.565 27.4602 42.4357 27.2259 41.4215 26.7571C40.4073 26.2798 39.6019 25.5938 39.0053 24.6989C38.4087 23.7955 38.1104 22.7045 38.1104 21.4261C38.1104 20.3011 38.332 19.3892 38.7752 18.6903C39.2184 17.983 39.8107 17.429 40.5522 17.0284C41.2937 16.6278 42.1119 16.3295 43.0067 16.1335C43.9102 15.929 44.8178 15.767 45.7298 15.6477C46.9229 15.4943 47.8903 15.3793 48.6317 15.3026C49.3817 15.2173 49.9272 15.0767 50.2681 14.8807C50.6175 14.6847 50.7923 14.3437 50.7923 13.858V13.7557C50.7923 12.4943 50.4471 11.5142 49.7567 10.8153C49.0749 10.1165 48.0394 9.76705 46.6502 9.76705C45.2099 9.76705 44.0806 10.0824 43.2624 10.7131C42.4442 11.3437 41.869 12.017 41.5366 12.733L38.6729 11.7102C39.1843 10.517 39.8661 9.58807 40.7184 8.9233C41.5792 8.25 42.5167 7.78125 43.5309 7.51705C44.5536 7.24432 45.5593 7.10795 46.5479 7.10795C47.1786 7.10795 47.9031 7.18466 48.7212 7.33807C49.5479 7.48295 50.3448 7.78551 51.1119 8.24574C51.8874 8.70597 52.5309 9.40057 53.0423 10.3295C53.5536 11.2585 53.8093 12.5028 53.8093 14.0625V27H50.7923V24.3409H50.6389C50.4343 24.767 50.0934 25.223 49.6161 25.7088C49.1388 26.1946 48.5039 26.608 47.7113 26.9489C46.9187 27.2898 45.9514 27.4602 44.8093 27.4602ZM45.2695 24.75C46.4627 24.75 47.4684 24.5156 48.2866 24.0469C49.1133 23.5781 49.7354 22.973 50.1531 22.2315C50.5792 21.4901 50.7923 20.7102 50.7923 19.892V17.1307C50.6644 17.2841 50.3832 17.4247 49.9485 17.5526C49.5224 17.6719 49.0281 17.7784 48.4656 17.8722C47.9116 17.9574 47.3704 18.0341 46.842 18.1023C46.3221 18.1619 45.9002 18.2131 45.5764 18.2557C44.7923 18.358 44.0593 18.5241 43.3775 18.7543C42.7042 18.9759 42.1587 19.3125 41.7411 19.7642C41.332 20.2074 41.1275 20.8125 41.1275 21.5795C41.1275 22.6278 41.5153 23.4205 42.2908 23.9574C43.0749 24.4858 44.0678 24.75 45.2695 24.75ZM63.7649 27L57.782 7.36364H60.9524L65.1967 22.3977H65.4013L69.5945 7.36364H72.8161L76.9581 22.3466H77.1626L81.407 7.36364H84.5774L78.5945 27H75.6286L71.3331 11.9148H71.0263L66.7308 27H63.7649ZM107.231 7.36364V9.92045H97.0547V7.36364H107.231ZM100.021 2.65909H103.038V21.375C103.038 22.2273 103.161 22.8665 103.408 23.2926C103.664 23.7102 103.988 23.9915 104.38 24.1364C104.781 24.2727 105.202 24.3409 105.646 24.3409C105.978 24.3409 106.251 24.3239 106.464 24.2898C106.677 24.2472 106.847 24.2131 106.975 24.1875L107.589 26.8977C107.384 26.9744 107.099 27.0511 106.732 27.1278C106.366 27.2131 105.901 27.2557 105.339 27.2557C104.487 27.2557 103.651 27.0724 102.833 26.706C102.023 26.3395 101.35 25.7812 100.813 25.0312C100.285 24.2812 100.021 23.3352 100.021 22.1932V2.65909ZM115.208 15.1875V27H112.191V0.818181H115.208V10.4318H115.464C115.924 9.41761 116.614 8.61222 117.535 8.01562C118.464 7.41051 119.7 7.10795 121.242 7.10795C122.58 7.10795 123.752 7.37642 124.758 7.91335C125.763 8.44176 126.543 9.25568 127.097 10.3551C127.66 11.446 127.941 12.8352 127.941 14.5227V27H124.924V14.7273C124.924 13.1676 124.519 11.9616 123.71 11.1094C122.908 10.2486 121.796 9.81818 120.373 9.81818C119.384 9.81818 118.498 10.027 117.714 10.4446C116.938 10.8622 116.325 11.4716 115.873 12.2727C115.43 13.0739 115.208 14.0455 115.208 15.1875ZM133.461 27V7.36364H136.478V27H133.461ZM134.995 4.09091C134.407 4.09091 133.9 3.89062 133.473 3.49006C133.056 3.08949 132.847 2.60795 132.847 2.04545C132.847 1.48295 133.056 1.00142 133.473 0.600851C133.9 0.200284 134.407 0 134.995 0C135.583 0 136.086 0.200284 136.503 0.600851C136.929 1.00142 137.142 1.48295 137.142 2.04545C137.142 2.60795 136.929 3.08949 136.503 3.49006C136.086 3.89062 135.583 4.09091 134.995 4.09091ZM155.913 11.7614L153.202 12.5284C153.032 12.0767 152.781 11.6378 152.448 11.2116C152.124 10.777 151.681 10.419 151.119 10.1378C150.556 9.85653 149.836 9.71591 148.958 9.71591C147.756 9.71591 146.755 9.9929 145.954 10.5469C145.161 11.0923 144.765 11.7869 144.765 12.6307C144.765 13.3807 145.038 13.973 145.583 14.4077C146.129 14.8423 146.981 15.2045 148.14 15.4943L151.055 16.2102C152.81 16.6364 154.119 17.2884 154.979 18.1662C155.84 19.0355 156.271 20.1562 156.271 21.5284C156.271 22.6534 155.947 23.6591 155.299 24.5455C154.66 25.4318 153.765 26.1307 152.614 26.642C151.464 27.1534 150.126 27.4091 148.6 27.4091C146.597 27.4091 144.94 26.9744 143.627 26.1051C142.315 25.2358 141.484 23.9659 141.134 22.2955L143.998 21.5795C144.271 22.6364 144.786 23.429 145.545 23.9574C146.312 24.4858 147.313 24.75 148.549 24.75C149.955 24.75 151.072 24.4517 151.898 23.8551C152.734 23.25 153.151 22.5256 153.151 21.6818C153.151 21 152.913 20.429 152.435 19.9688C151.958 19.5 151.225 19.1506 150.237 18.9205L146.964 18.1534C145.165 17.7273 143.844 17.0668 143.001 16.1719C142.165 15.2685 141.748 14.1392 141.748 12.7841C141.748 11.6761 142.059 10.696 142.681 9.84375C143.312 8.99148 144.168 8.32244 145.251 7.83665C146.342 7.35085 147.577 7.10795 148.958 7.10795C150.901 7.10795 152.427 7.53409 153.535 8.38636C154.651 9.23864 155.444 10.3636 155.913 11.7614ZM179.477 7.36364V9.92045H169.301V7.36364H179.477ZM172.267 2.65909H175.284V21.375C175.284 22.2273 175.407 22.8665 175.654 23.2926C175.91 23.7102 176.234 23.9915 176.626 24.1364C177.027 24.2727 177.449 24.3409 177.892 24.3409C178.224 24.3409 178.497 24.3239 178.71 24.2898C178.923 24.2472 179.093 24.2131 179.221 24.1875L179.835 26.8977C179.63 26.9744 179.345 27.0511 178.978 27.1278C178.612 27.2131 178.147 27.2557 177.585 27.2557C176.733 27.2557 175.897 27.0724 175.079 26.706C174.27 26.3395 173.596 25.7812 173.059 25.0312C172.531 24.2812 172.267 23.3352 172.267 22.1932V2.65909ZM192.037 27.4091C190.145 27.4091 188.513 26.9915 187.141 26.1562C185.777 25.3125 184.725 24.1364 183.983 22.6278C183.25 21.1108 182.884 19.3466 182.884 17.3352C182.884 15.3239 183.25 13.5511 183.983 12.017C184.725 10.4744 185.756 9.27273 187.077 8.41193C188.407 7.54261 189.958 7.10795 191.73 7.10795C192.753 7.10795 193.763 7.27841 194.76 7.61932C195.757 7.96023 196.665 8.5142 197.483 9.28125C198.301 10.0398 198.953 11.0455 199.439 12.2983C199.925 13.5511 200.168 15.0937 200.168 16.9261V18.2045H185.032V15.5966H197.1C197.1 14.4886 196.878 13.5 196.435 12.6307C196 11.7614 195.378 11.0753 194.569 10.5724C193.767 10.0696 192.821 9.81818 191.73 9.81818C190.529 9.81818 189.489 10.1165 188.611 10.7131C187.742 11.3011 187.073 12.0682 186.604 13.0142C186.135 13.9602 185.901 14.9744 185.901 16.0568V17.7955C185.901 19.2784 186.157 20.5355 186.668 21.5668C187.188 22.5895 187.908 23.3693 188.828 23.9062C189.749 24.4347 190.819 24.6989 192.037 24.6989C192.83 24.6989 193.546 24.5881 194.185 24.3665C194.833 24.1364 195.391 23.7955 195.86 23.3438C196.328 22.8835 196.691 22.3125 196.946 21.6307L199.861 22.4489C199.554 23.4375 199.039 24.3068 198.314 25.0568C197.59 25.7983 196.695 26.3778 195.63 26.7955C194.564 27.2045 193.367 27.4091 192.037 27.4091ZM206.48 7.36364L211.185 15.392L215.889 7.36364H219.366L213.026 17.1818L219.366 27H215.889L211.185 19.3807L206.48 27H203.003L209.241 17.1818L203.003 7.36364H206.48ZM232.211 7.36364V9.92045H222.035V7.36364H232.211ZM225.001 2.65909H228.018V21.375C228.018 22.2273 228.142 22.8665 228.389 23.2926C228.645 23.7102 228.968 23.9915 229.36 24.1364C229.761 24.2727 230.183 24.3409 230.626 24.3409C230.958 24.3409 231.231 24.3239 231.444 24.2898C231.657 24.2472 231.828 24.2131 231.956 24.1875L232.569 26.8977C232.365 26.9744 232.079 27.0511 231.713 27.1278C231.346 27.2131 230.882 27.2557 230.319 27.2557C229.467 27.2557 228.632 27.0724 227.814 26.706C227.004 26.3395 226.331 25.7812 225.794 25.0312C225.265 24.2812 225.001 23.3352 225.001 22.1932V2.65909Z" fill="black"/>
</svg>
